<svg xmlns="http://www.w3.org/2000/svg" xmlns:xlink="http://www.w3.org/1999/xlink" width="5.318" height="17.588" viewBox="0 0 5.318 17.588"><defs><clipPath id="clip-path"><rect id="Rectangle_2243" data-name="Rectangle 2243" width="5.318" height="17.588" fill="none" stroke="#adaafa" stroke-width="0.5"></rect></clipPath></defs><g id="curvey-line" clip-path="url(#clip-path)"><path id="Path_15389" data-name="Path 15389" d="M0,16.736c0-1.35,1.284-1.915,2.316-2.368.454-.2,1.3-.571,1.3-.809s-.844-.609-1.3-.809C1.284,12.3,0,11.732,0,10.382S1.284,8.467,2.316,8.014c.454-.2,1.3-.571,1.3-.808S2.77,6.6,2.316,6.4C1.284,5.944,0,5.379,0,4.029S1.284,2.114,2.316,1.66c.454-.2,1.3-.57,1.3-.808a.852.852,0,1,1,1.7,0C5.318,2.2,4.034,2.767,3,3.22c-.453.2-1.3.571-1.3.809s.845.609,1.3.809c1.032.453,2.316,1.018,2.316,2.368S4.034,9.12,3,9.574c-.453.2-1.3.57-1.3.808s.845.609,1.3.809c1.032.453,2.316,1.018,2.316,2.368S4.034,15.474,3,15.927c-.453.2-1.3.571-1.3.809a.852.852,0,1,1-1.7,0" transform="translate(0 0)" fill="none" stroke="#adaafa" stroke-width="0.5"></path></g></svg>