<svg xmlns="http://www.w3.org/2000/svg" width="170.1" height="30.2" viewBox="0 0 170.1 30.2"><g id="cloudways-blog-logo" transform="translate(-1.2 -3.2)" opacity="0.8" style="isolation: isolate"><path id="Path_617" data-name="Path 617" d="M69.2,14.1a4.164,4.164,0,0,0-4.4,4.3,4.108,4.108,0,0,0,4.4,4.3,5.021,5.021,0,0,0,3.2-1.3l1.3,1.3a6.18,6.18,0,0,1-4.5,1.7c-4.3,0-6.3-2.9-6.3-6a5.87,5.87,0,0,1,6.3-6.1,6.379,6.379,0,0,1,4.4,1.8l-1.3,1.2A4.208,4.208,0,0,0,69.2,14.1Z" fill="#fff"></path><path id="Path_618" data-name="Path 618" d="M74.8,24.1V12.4h1.9v10H83v1.7Z" fill="#fff"></path><path id="Path_619" data-name="Path 619" d="M90.3,23.5a5.049,5.049,0,0,1-3.919-1.577A5.263,5.263,0,0,1,85.1,18.4a4.985,4.985,0,0,1,5.2-5.2,5.037,5.037,0,0,1,3.918,1.552A5.4,5.4,0,0,1,95.5,18.4a5.246,5.246,0,0,1-1.278,3.557A5.074,5.074,0,0,1,90.3,23.5Z" fill="none" stroke="#fff" stroke-width="1.8"></path><path id="Path_620" data-name="Path 620" d="M102.6,24.4a4.725,4.725,0,0,1-4.9-5.1V12.5h1.9v6.8a3.154,3.154,0,1,0,6.3,0V12.5h1.9v6.8C107.8,22.8,105.5,24.5,102.6,24.4Z" fill="#fff"></path><path id="Path_621" data-name="Path 621" d="M114.1,23.2h-3.6V13.3h3.6a4.926,4.926,0,0,1,3.833,1.5,5.217,5.217,0,0,1,1.267,3.311,5.34,5.34,0,0,1-1.239,3.515A4.9,4.9,0,0,1,114.1,23.2Z" fill="none" stroke="#fff" stroke-width="1.8"></path><path id="Path_622" data-name="Path 622" d="M134,24.2h-1.7L130.7,20l-1.3-3.9-1.3,4-1.5,4.1h-1.7l-4.3-11.7h2.1l3,9,3.1-9H130l3.2,9,3-9h2.1Z" fill="#fff"></path><path id="Path_623" data-name="Path 623" d="M148.611,21.991,149.2,23.3h-.017ZM144.72,13.4l3.352,7.4h-7.644l3.352-7.4ZM139.3,23.3l.593-1.309-.576,1.309Z" fill="none" stroke="#fff" stroke-width="1.8"></path><path id="Path_624" data-name="Path 624" d="M155.9,19.4v4.7H154V19.4l-4.6-6.9v-.1h2.3l3.2,5.2,3.4-5.2h2.3v.1Z" fill="#fff"></path><path id="Path_625" data-name="Path 625" d="M166.3,13.8c-1.6,0-2.7.6-2.7,1.8,0,1.1,1.3,1.4,2.9,1.7,2.4.3,4.8,1,4.8,3.6s-2.4,3.6-5,3.6c-2.3,0-4-.7-5.1-2.7l1.4-1a4.079,4.079,0,0,0,3.7,1.9c1.4,0,3-.5,3-1.9,0-1.3-1.4-1.7-3.1-1.9-2.4-.3-4.6-.9-4.6-3.4,0-2.4,2.4-3.3,4.6-3.3,1.7,0,3.4.4,4.4,2l-1.5,1A2.911,2.911,0,0,0,166.3,13.8Z" fill="#fff"></path><path id="Path_626" data-name="Path 626" d="M39.6,27.2a12.079,12.079,0,0,1-12.2-12,12.2,12.2,0,0,1,24.4,0A12.143,12.143,0,0,1,39.6,27.2Z" fill="#fff"></path><path id="Path_627" data-name="Path 627" d="M48.5,33.3A10.5,10.5,0,1,1,59.1,22.8,10.4,10.4,0,0,1,48.5,33.3Z" fill="#fff"></path><path id="Path_628" data-name="Path 628" d="M30.7,33.3A10.5,10.5,0,1,1,41.3,22.8,10.4,10.4,0,0,1,30.7,33.3Z" fill="#fff"></path><path id="Path_629" data-name="Path 629" d="M30.7,33.4V25H48.5v8.4Z" fill="#fff"></path><path id="Path_630" data-name="Path 630" d="M15.7,26.8H5.7a.736.736,0,0,1-.8-.8V24.9a.789.789,0,0,1,.8-.8h10a.736.736,0,0,1,.8.8V26A.789.789,0,0,1,15.7,26.8Z" fill="#fff"></path><path id="Path_631" data-name="Path 631" d="M29,27H18.7a.736.736,0,0,1-.8-.8V25a.736.736,0,0,1,.8-.8H29a.736.736,0,0,1,.8.8v1.2A.86.86,0,0,1,29,27Z" fill="#fff"></path><path id="Path_632" data-name="Path 632" d="M40,33.4H11.4A1.367,1.367,0,0,1,10,32a1.43,1.43,0,0,1,1.4-1.4H40A1.367,1.367,0,0,1,41.4,32,1.43,1.43,0,0,1,40,33.4Z" fill="#fff"></path><path id="Path_633" data-name="Path 633" d="M31.2,20.6H2.6a1.367,1.367,0,0,1-1.4-1.4,1.43,1.43,0,0,1,1.4-1.4H31.2a1.367,1.367,0,0,1,1.4,1.4A1.43,1.43,0,0,1,31.2,20.6Z" fill="#fff"></path><path id="Path_634" data-name="Path 634" d="M38.8,14.2H10.3a1.367,1.367,0,0,1-1.4-1.4,1.43,1.43,0,0,1,1.4-1.4H38.9a1.367,1.367,0,0,1,1.4,1.4A1.453,1.453,0,0,1,38.8,14.2Z" fill="#fff"></path><path id="Path_635" data-name="Path 635" d="M41.6,7.8H13a1.367,1.367,0,0,1-1.4-1.4A1.43,1.43,0,0,1,13,5H41.6A1.506,1.506,0,0,1,43,6.4,1.43,1.43,0,0,1,41.6,7.8Z" fill="#fff"></path></g></svg>