<svg xmlns="http://www.w3.org/2000/svg" width="67" height="67" viewBox="0 0 67 67"><g id="powerfull-intgrations-wordpress-image" transform="translate(-1215.395 -1377.472)"><g id="Rectangle_2248" data-name="Rectangle 2248" transform="translate(1215.395 1377.472)" fill="rgba(173,170,250,0.1)" stroke="#adaafa" stroke-width="1"><rect width="67" height="67" rx="10" stroke="none"></rect><rect x="0.5" y="0.5" width="66" height="66" rx="9.5" fill="none"></rect></g><g id="wordpress-logo-svgrepo-com" transform="translate(1228.461 1390.461)"><g id="Group_2506" data-name="Group 2506"><path id="Path_15396" data-name="Path 15396" d="M42.626,30.311a6.8,6.8,0,0,0-1.063-3.561,6.041,6.041,0,0,1-1.269-3.028,2.236,2.236,0,0,1,2.169-2.292c.057,0,.112.007.167.01a12.907,12.907,0,0,0-19.5,2.43c.3.009.589.015.831.015,1.35,0,3.441-.164,3.441-.164a.533.533,0,0,1,.083,1.063s-.7.082-1.477.123l4.7,13.985,2.826-8.473L31.517,24.91c-.695-.041-1.354-.123-1.354-.123a.533.533,0,0,1,.082-1.063s2.132.164,3.4.164c1.35,0,3.441-.164,3.441-.164a.533.533,0,0,1,.082,1.063s-.7.082-1.477.123l4.666,13.878,1.288-4.3A15.618,15.618,0,0,0,42.626,30.311Z" transform="translate(-13.439 -10.491)" fill="#adaafa"></path><path id="Path_15397" data-name="Path 15397" d="M18.054,41.585A12.913,12.913,0,0,0,25.331,53.2L19.172,36.331A12.86,12.86,0,0,0,18.054,41.585Z" transform="translate(-10.492 -21.113)" fill="#adaafa"></path><path id="Path_15398" data-name="Path 15398" d="M44.042,51.57,40.168,62.825A12.908,12.908,0,0,0,48.1,62.62a1.115,1.115,0,0,1-.093-.178Z" transform="translate(-23.343 -29.969)" fill="#adaafa"></path><path id="Path_15399" data-name="Path 15399" d="M64.37,51.44a12.912,12.912,0,0,0,4.838-17.353,9.8,9.8,0,0,1,.087,1.327,12.166,12.166,0,0,1-.982,4.624Z" transform="translate(-37.408 -19.809)" fill="#adaafa"></path><path id="Path_15400" data-name="Path 15400" d="M20.472,0A20.472,20.472,0,1,0,40.944,20.472,20.472,20.472,0,0,0,20.472,0Zm0,34.831A14.359,14.359,0,1,1,34.83,20.472,14.376,14.376,0,0,1,20.472,34.831Z" fill="#adaafa"></path></g></g></g></svg>