<svg xmlns="http://www.w3.org/2000/svg" id="checked-icon" width="22.237" height="22.237" viewBox="0 0 22.237 22.237"><path id="Path_10" data-name="Path 10" d="M21.884,13.238l-.941-.968a.2.2,0,0,0-.15-.064h0a.194.194,0,0,0-.15.064l-6.521,6.57-2.373-2.373a.207.207,0,0,0-.3,0l-.951.951a.213.213,0,0,0,0,.3l2.993,2.993a.947.947,0,0,0,.625.3.992.992,0,0,0,.62-.294h.005l7.147-7.184A.229.229,0,0,0,21.884,13.238Z" transform="translate(-5.068 -5.492)" fill="#47ff53"></path><path id="Path_11" data-name="Path 11" d="M14.494,4.872a9.618,9.618,0,1,1-6.8,2.817,9.558,9.558,0,0,1,6.8-2.817m0-1.5A11.119,11.119,0,1,0,25.612,14.494,11.117,11.117,0,0,0,14.494,3.375Z" transform="translate(-3.375 -3.375)" fill="#47ff53"></path></svg>