<svg xmlns="http://www.w3.org/2000/svg" width="54" height="54" viewBox="0 0 54 54"><g id="powerfull-intgrations-image" transform="translate(-1215.597 -1377.597)"><g id="Rectangle_2248" data-name="Rectangle 2248" transform="translate(1215.597 1377.597)" fill="rgba(173,170,250,0.1)" stroke="#adaafa" stroke-width="1"><rect width="54" height="54" rx="10" stroke="none"></rect><rect x="0.5" y="0.5" width="53" height="53" rx="9.5" fill="none"></rect></g><path id="Path_15401" data-name="Path 15401" d="M403.63,312.379c.26.611.229,1.528.626,2.016.031.015.076.046.107.061,2.353-.137,2.475-2.8,1.329-4.033a1.864,1.864,0,0,0-2.139-.306,10.394,10.394,0,0,1-11.793-2.047,9.031,9.031,0,0,1-2.689-5.377,9.764,9.764,0,0,1,16.682-8.188,10.408,10.408,0,0,1,2.734,9.487c-.336,1.787-1.39,4-3.758,4a3.524,3.524,0,0,1-2.566-1.115,3.4,3.4,0,0,1-1.085-2.307c-.229-3.5,4.293-4.476,3.987-7.99a2.563,2.563,0,0,0-.764-1.635c-1.375-1.314-4.125-1.818-6.63-1.314a8.705,8.705,0,0,0-6.6,6.829,9.722,9.722,0,0,0,2.582,7.959,7.972,7.972,0,0,0,7.653,2.047c1.039-.244,1.818-1.222,3.529-.947a2.361,2.361,0,0,1,1.451.764c1.36,1.253,1.146,3.926-.626,4.537a3.552,3.552,0,0,1-3.3-.749c-.015,0-.015,0-.031-.015a1,1,0,0,1-.244-.2,1.476,1.476,0,0,1-.443-1.207c.061-.733.519-1.3,1.039-1.253a.76.76,0,0,1,.55.29A1.328,1.328,0,0,1,403.63,312.379Z" transform="translate(843.542 1101.134)" fill="#adaafa"></path></g></svg>