<svg xmlns="http://www.w3.org/2000/svg" width="32" height="32" viewBox="0 0 32 32"><g id="powerfull-intgrations-wordpress-medium-image" transform="translate(-1215.507 -1377.507)" opacity="0.5"><g id="Rectangle_2248" data-name="Rectangle 2248" transform="translate(1215.507 1377.507)" fill="rgba(173,170,250,0.1)" stroke="#adaafa" stroke-width="1"><rect width="32" height="32" rx="5" stroke="none"></rect><rect x="0.5" y="0.5" width="31" height="31" rx="4.5" fill="none"></rect></g><g id="wordpress-logo-svgrepo-com" transform="translate(1221.645 1383.645)"><g id="Group_2506" data-name="Group 2506" transform="translate(0 0)"><path id="Path_15396" data-name="Path 15396" d="M32.519,23.957a3.278,3.278,0,0,0-.512-1.715,2.91,2.91,0,0,1-.611-1.458,1.077,1.077,0,0,1,1.045-1.1c.027,0,.054,0,.08,0a6.217,6.217,0,0,0-9.4,1.171c.146,0,.283.007.4.007.651,0,1.657-.079,1.657-.079a.257.257,0,0,1,.04.512s-.337.04-.712.059l2.264,6.737,1.361-4.082-.969-2.655c-.335-.02-.652-.059-.652-.059a.257.257,0,0,1,.039-.512s1.027.079,1.638.079c.651,0,1.658-.079,1.658-.079a.257.257,0,0,1,.04.512s-.338.04-.712.059l2.248,6.685.62-2.073A7.523,7.523,0,0,0,32.519,23.957Z" transform="translate(-18.459 -14.41)" fill="#adaafa"></path><path id="Path_15397" data-name="Path 15397" d="M18.054,38.862a6.22,6.22,0,0,0,3.505,5.6l-2.967-8.128A6.2,6.2,0,0,0,18.054,38.862Z" transform="translate(-14.411 -29)" fill="#adaafa"></path><path id="Path_15398" data-name="Path 15398" d="M42.034,51.57l-1.866,5.422a6.218,6.218,0,0,0,3.822-.1.538.538,0,0,1-.045-.086Z" transform="translate(-32.063 -41.165)" fill="#adaafa"></path><path id="Path_15399" data-name="Path 15399" d="M64.37,42.446A6.22,6.22,0,0,0,66.7,34.087a4.721,4.721,0,0,1,.042.639,5.861,5.861,0,0,1-.473,2.228Z" transform="translate(-51.382 -27.209)" fill="#adaafa"></path><path id="Path_15400" data-name="Path 15400" d="M9.862,0a9.862,9.862,0,1,0,9.862,9.862A9.862,9.862,0,0,0,9.862,0Zm0,16.778a6.917,6.917,0,1,1,6.916-6.917A6.925,6.925,0,0,1,9.862,16.778Z" transform="translate(0 0)" fill="#adaafa"></path></g></g></g></svg>