<svg xmlns="http://www.w3.org/2000/svg" xmlns:xlink="http://www.w3.org/1999/xlink" width="379.015" height="237.652" viewBox="0 0 379.015 237.652"><defs><linearGradient id="linear-gradient" x1="0.025" y1="0.045" x2="0.948" y2="0.974" gradientUnits="objectBoundingBox"><stop offset="0" stop-color="#adaafa"></stop><stop offset="1" stop-color="#6462ab"></stop></linearGradient></defs><g id="multisite-supported-image" transform="translate(-876.993 -1270.227)"><g id="Video" transform="translate(-40.085 -211.057)"><g id="Group_2509" data-name="Group 2509" transform="translate(1057.269 1481.468)"><g id="Rectangle_2248" data-name="Rectangle 2248" transform="translate(-0.184 -0.184)" stroke="#adaafa" stroke-width="1" fill="url(#linear-gradient)"><rect width="99" height="99" rx="10" stroke="none"></rect><rect x="0.5" y="0.5" width="98" height="98" rx="9.5" fill="none"></rect></g><g id="wordpress-logo-svgrepo-com" transform="translate(19.131 19.016)"><g id="Group_2506" data-name="Group 2506"><path id="Path_15396" data-name="Path 15396" d="M51.933,36.162a10.052,10.052,0,0,0-1.571-5.26c-.967-1.571-1.874-2.9-1.874-4.473a3.3,3.3,0,0,1,3.2-3.385c.084,0,.166.011.246.015a19.067,19.067,0,0,0-28.813,3.59c.447.013.869.023,1.228.023,1.995,0,5.083-.243,5.083-.243A.788.788,0,0,1,29.558,28s-1.033.121-2.182.181l6.944,20.66,4.174-12.517-2.972-8.141c-1.027-.06-2-.181-2-.181a.788.788,0,0,1,.121-1.571s3.15.242,5.023.242c1.995,0,5.084-.242,5.084-.242A.788.788,0,0,1,43.87,28s-1.036.121-2.182.181l6.893,20.5,1.9-6.356C51.307,39.689,51.933,37.794,51.933,36.162Z" transform="translate(-8.816 -6.882)" fill="#fff"></path><path id="Path_15397" data-name="Path 15397" d="M18.054,44.092A19.075,19.075,0,0,0,28.8,61.257L19.7,36.331A19,19,0,0,0,18.054,44.092Z" transform="translate(-6.883 -13.85)" fill="#fff"></path><path id="Path_15398" data-name="Path 15398" d="M45.891,51.57,40.168,68.2a19.069,19.069,0,0,0,11.721-.3,1.648,1.648,0,0,1-.137-.263Z" transform="translate(-15.313 -19.66)" fill="#fff"></path><path id="Path_15399" data-name="Path 15399" d="M64.37,59.722a19.074,19.074,0,0,0,7.147-25.635,14.481,14.481,0,0,1,.129,1.961,17.972,17.972,0,0,1-1.45,6.831Z" transform="translate(-24.539 -12.995)" fill="#fff"></path><path id="Path_15400" data-name="Path 15400" d="M30.243,0A30.243,30.243,0,1,0,60.485,30.243,30.243,30.243,0,0,0,30.243,0Zm0,51.455a21.212,21.212,0,1,1,21.21-21.213A21.237,21.237,0,0,1,30.243,51.455Z" fill="#fff"></path></g></g></g></g><g id="Group_2587" data-name="Group 2587" transform="translate(-35 -2812.272)"><g id="Group_2591" data-name="Group 2591" transform="translate(0 11)"><g id="Group_2587-2" data-name="Group 2587" transform="translate(13.983 -116.057)"><g id="Group_2582" data-name="Group 2582" transform="translate(971.397 4286.557)"><line id="Line_2" data-name="Line 2" y1="73.5" x2="77.5" transform="translate(-10.879)" fill="none" stroke="#adaafa" stroke-width="1" stroke-dasharray="4 5"></line></g><g id="Group_2510" data-name="Group 2510" transform="translate(898.01 4360.057)"><g id="Rectangle_2248-2" data-name="Rectangle 2248" fill="rgba(173,170,250,0.1)" stroke="#adaafa" stroke-width="1"><rect width="62.507" height="64.152" rx="10" stroke="none"></rect><rect x="0.5" y="0.5" width="61.507" height="63.152" rx="9.5" fill="none"></rect></g><g id="wordpress-logo-svgrepo-com-2" data-name="wordpress-logo-svgrepo-com" transform="translate(12.021 12.677)"><g id="Group_2506-2" data-name="Group 2506"><path id="Path_15396-2" data-name="Path 15396" d="M41.415,29.55a6.382,6.382,0,0,0-1-3.34,5.666,5.666,0,0,1-1.19-2.84,2.1,2.1,0,0,1,2.034-2.149c.053,0,.105.007.156.009A12.105,12.105,0,0,0,23.125,23.51c.284.008.552.015.779.015,1.267,0,3.227-.154,3.227-.154a.5.5,0,0,1,.078,1s-.656.077-1.386.115L30.232,37.6l2.65-7.947L31,24.484c-.652-.038-1.27-.115-1.27-.115a.5.5,0,0,1,.077-1s2,.154,3.189.154c1.267,0,3.228-.154,3.228-.154a.5.5,0,0,1,.077,1s-.658.077-1.386.115L39.286,37.5l1.208-4.035A14.648,14.648,0,0,0,41.415,29.55Z" transform="translate(-14.04 -10.96)" fill="#adaafa"></path><path id="Path_15397-2" data-name="Path 15397" d="M18.054,41.259a12.111,12.111,0,0,0,6.825,10.9L19.1,36.331A12.061,12.061,0,0,0,18.054,41.259Z" transform="translate(-10.961 -22.058)" fill="#adaafa"></path><path id="Path_15398-2" data-name="Path 15398" d="M43.8,51.57,40.168,62.126a12.106,12.106,0,0,0,7.442-.193,1.046,1.046,0,0,1-.087-.167Z" transform="translate(-24.388 -31.31)" fill="#adaafa"></path><path id="Path_15399-2" data-name="Path 15399" d="M64.37,50.363a12.11,12.11,0,0,0,4.538-16.276,9.193,9.193,0,0,1,.082,1.245,11.41,11.41,0,0,1-.921,4.337Z" transform="translate(-39.082 -20.696)" fill="#adaafa"></path><path id="Path_15400-2" data-name="Path 15400" d="M19.2,0A19.2,19.2,0,1,0,38.4,19.2,19.2,19.2,0,0,0,19.2,0Zm0,32.668A13.468,13.468,0,1,1,32.668,19.2,13.483,13.483,0,0,1,19.2,32.668Z" fill="#adaafa"></path></g></g></g></g></g></g><g id="Group_2595" data-name="Group 2595" transform="translate(1116 1369.228)"><g id="Group_2591-2" data-name="Group 2591" transform="translate(0)"><g id="Group_2587-3" data-name="Group 2587"><g id="Group_2582-2" data-name="Group 2582" transform="translate(0)"><line id="Line_2-2" data-name="Line 2" x1="77.5" y1="73.5" transform="translate(0)" fill="none" stroke="#adaafa" stroke-width="1" stroke-dasharray="4 5"></line></g><g id="Group_2510-2" data-name="Group 2510" transform="translate(77.5 73.5)"><g id="Rectangle_2248-3" data-name="Rectangle 2248" fill="rgba(173,170,250,0.1)" stroke="#adaafa" stroke-width="1"><rect width="62.507" height="64.152" rx="10" stroke="none"></rect><rect x="0.5" y="0.5" width="61.507" height="63.152" rx="9.5" fill="none"></rect></g><g id="wordpress-logo-svgrepo-com-3" data-name="wordpress-logo-svgrepo-com" transform="translate(12.085 12.677)"><g id="Group_2506-3" data-name="Group 2506"><path id="Path_15396-3" data-name="Path 15396" d="M23.128,29.55a6.382,6.382,0,0,1,1-3.34,5.666,5.666,0,0,0,1.19-2.84,2.1,2.1,0,0,0-2.034-2.149c-.053,0-.105.007-.156.009A12.105,12.105,0,0,1,41.418,23.51c-.284.008-.552.015-.779.015-1.267,0-3.227-.154-3.227-.154a.5.5,0,0,0-.078,1s.656.077,1.386.115L34.311,37.6l-2.65-7.947,1.887-5.169c.652-.038,1.27-.115,1.27-.115a.5.5,0,0,0-.077-1s-2,.154-3.189.154c-1.267,0-3.228-.154-3.228-.154a.5.5,0,0,0-.077,1s.658.077,1.386.115L25.257,37.5l-1.208-4.035A14.648,14.648,0,0,1,23.128,29.55Z" transform="translate(-12.101 -10.96)" fill="#adaafa"></path><path id="Path_15397-3" data-name="Path 15397" d="M24.879,41.259a12.111,12.111,0,0,1-6.825,10.9l5.777-15.825A12.061,12.061,0,0,1,24.879,41.259Z" transform="translate(6.43 -22.058)" fill="#adaafa"></path><path id="Path_15398-3" data-name="Path 15398" d="M43.976,51.57,47.61,62.126a12.107,12.107,0,0,1-7.442-.193,1.046,1.046,0,0,0,.087-.167Z" transform="translate(-24.988 -31.31)" fill="#adaafa"></path><path id="Path_15399-3" data-name="Path 15399" d="M70.391,50.363a12.11,12.11,0,0,1-4.538-16.276,9.193,9.193,0,0,0-.082,1.245,11.41,11.41,0,0,0,.921,4.337Z" transform="translate(-57.278 -20.696)" fill="#adaafa"></path><path id="Path_15400-3" data-name="Path 15400" d="M19.2,0A19.2,19.2,0,1,1,0,19.2,19.2,19.2,0,0,1,19.2,0Zm0,32.668A13.468,13.468,0,1,0,5.734,19.2,13.483,13.483,0,0,0,19.2,32.668Z" fill="#adaafa"></path></g></g></g></g></g></g><g id="Group_2596" data-name="Group 2596" transform="translate(129 -2812.272)"><g id="Group_2591-3" data-name="Group 2591" transform="translate(0 11)"><g id="Group_2587-4" data-name="Group 2587" transform="translate(13.983 -116.057)"><g id="Group_2597" data-name="Group 2597"><g id="Group_2582-3" data-name="Group 2582" transform="translate(969.396 4286.557)"><line id="Line_2-3" data-name="Line 2" y1="70" transform="translate(-45.879 0.5)" fill="none" stroke="#adaafa" stroke-width="1" stroke-dasharray="4 5"></line></g><g id="Group_2510-3" data-name="Group 2510" transform="translate(892.263 4361.057)"><g id="Rectangle_2248-4" data-name="Rectangle 2248" fill="rgba(173,170,250,0.1)" stroke="#adaafa" stroke-width="1"><rect width="62.507" height="64.152" rx="10" stroke="none"></rect><rect x="0.5" y="0.5" width="61.507" height="63.152" rx="9.5" fill="none"></rect></g><g id="wordpress-logo-svgrepo-com-4" data-name="wordpress-logo-svgrepo-com" transform="translate(12.021 12.677)"><g id="Group_2506-4" data-name="Group 2506"><path id="Path_15396-4" data-name="Path 15396" d="M41.415,29.55a6.382,6.382,0,0,0-1-3.34,5.666,5.666,0,0,1-1.19-2.84,2.1,2.1,0,0,1,2.034-2.149c.053,0,.105.007.156.009A12.105,12.105,0,0,0,23.125,23.51c.284.008.552.015.779.015,1.267,0,3.227-.154,3.227-.154a.5.5,0,0,1,.078,1s-.656.077-1.386.115L30.232,37.6l2.65-7.947L31,24.484c-.652-.038-1.27-.115-1.27-.115a.5.5,0,0,1,.077-1s2,.154,3.189.154c1.267,0,3.228-.154,3.228-.154a.5.5,0,0,1,.077,1s-.658.077-1.386.115L39.286,37.5l1.208-4.035A14.648,14.648,0,0,0,41.415,29.55Z" transform="translate(-14.04 -10.96)" fill="#adaafa"></path><path id="Path_15397-4" data-name="Path 15397" d="M18.054,41.259a12.111,12.111,0,0,0,6.825,10.9L19.1,36.331A12.061,12.061,0,0,0,18.054,41.259Z" transform="translate(-10.961 -22.058)" fill="#adaafa"></path><path id="Path_15398-4" data-name="Path 15398" d="M43.8,51.57,40.168,62.126a12.106,12.106,0,0,0,7.442-.193,1.046,1.046,0,0,1-.087-.167Z" transform="translate(-24.388 -31.31)" fill="#adaafa"></path><path id="Path_15399-4" data-name="Path 15399" d="M64.37,50.363a12.11,12.11,0,0,0,4.538-16.276,9.193,9.193,0,0,1,.082,1.245,11.41,11.41,0,0,1-.921,4.337Z" transform="translate(-39.082 -20.696)" fill="#adaafa"></path><path id="Path_15400-4" data-name="Path 15400" d="M19.2,0A19.2,19.2,0,1,0,38.4,19.2,19.2,19.2,0,0,0,19.2,0Zm0,32.668A13.468,13.468,0,1,1,32.668,19.2,13.483,13.483,0,0,1,19.2,32.668Z" fill="#adaafa"></path></g></g></g></g></g></g></g></g></svg>