<svg xmlns="http://www.w3.org/2000/svg" xmlns:xlink="http://www.w3.org/1999/xlink" width="339.534" height="209" viewBox="0 0 339.534 209"><defs><linearGradient id="linear-gradient" x1="0.195" y1="0.391" x2="1.694" y2="1.5" gradientUnits="objectBoundingBox"><stop offset="0" stop-color="#adaafa"></stop><stop offset="1" stop-color="#ceccff"></stop></linearGradient></defs><g id="powerfull-intgrations-cloud-image" transform="translate(-863.929 -1298.617)"><path id="Path_15394" data-name="Path 15394" d="M192.264,12.919c-11.479-.019-21.071,2.2-30.305,7.017-8.555,4.471-19.053,13.252-24.184,20.307-8.744,11.932-8.281,11.545-12.422,9.828-13.035-5.423-28.117-6.376-40.1-2.518-22.194,7.131-38.106,29.353-39.03,54.555-.17,4.056-.623,7.951-1.047,8.678-.424.689-3.141,1.924-6.018,2.679A45.159,45.159,0,0,0,8.989,138.724C6.3,144.7,6,146.647,6,158.682c0,12.648.2,13.7,3.575,20.845,5.961,12.611,18.666,23.656,30.654,26.617,4.339,1.066,35.729,1.4,36.71.387.4-.406-.264-2.707-1.481-5.15-3.179-6.489-5.48-17.846-5.48-27.1,0-25.448,14.714-45.331,39.945-53.942,8.149-2.782,10.055-4,10.055-6.452,0-3.462,6.018-17.364,10.743-24.825a66.632,66.632,0,0,1,26.3-24.118c27.306-14.007,59.441-9.564,79.126,10.922l6.989,7.244,7.649-2.066A66.468,66.468,0,0,1,261.5,78.906c3.848-.057,4.009-2.933.736-13.12-10.224-31.88-37.917-52.772-69.967-52.848Zm-2.226,57.366c-13.6-.057-19.289,1.236-30.532,7.093-10.743,5.6-20.817,19.3-26.249,35.729a43.381,43.381,0,0,0-2.169,9.055c0,4.367-2.518,6.253-10.743,8.008-16.516,3.528-29.079,13.12-33.823,25.825-1.934,5.188-2.49,9.055-2.481,17.119.028,25.221,11.488,42.227,32.041,47.538,4.273,1.1,28.994,1.387,106.743,1.226l101.187-.189,4.537-2.556c9.687-5.4,15.8-16.251,16.808-29.853,1.537-20.807-6.942-34.955-25.023-41.7l-6.348-2.367-.67-9.008c-2.584-32.937-34.635-52.64-66.779-41.058l-6.659,2.4-7.395-8.112C219,74.7,209.355,70.351,190.038,70.238" transform="translate(857.93 1285.698)" fill="#adaafa"></path><path id="Path_15395" data-name="Path 15395" d="M198.912,76.8c-13.6-.057-19.289,1.236-30.532,7.093-10.743,5.6-20.817,19.3-26.249,35.729a43.381,43.381,0,0,0-2.169,9.055c0,4.367-2.518,6.253-10.743,8.008-16.516,3.528-29.079,13.12-33.823,25.825-1.934,5.188-2.49,9.055-2.481,17.119.028,25.221,11.488,42.227,32.041,47.538,4.273,1.1,28.994,1.387,106.743,1.226l101.187-.189,4.537-2.556c9.687-5.4,15.8-16.251,16.808-29.853,1.537-20.807-6.942-34.955-25.023-41.7l-6.348-2.367-.67-9.008c-2.584-32.937-34.635-52.64-66.779-41.058l-6.659,2.4-7.395-8.112c-13.478-14.733-23.127-19.081-42.444-19.194" transform="translate(849.055 1279.18)" fill="url(#linear-gradient)"></path></g></svg>