<svg xmlns="http://www.w3.org/2000/svg" width="17.668" height="17.668" viewBox="0 0 17.668 17.668"><g id="powerfull-intgration" transform="translate(-1215.507 -1377.507)" opacity="0.2"><g id="Rectangle_2248" data-name="Rectangle 2248" transform="translate(1215.507 1377.507)" fill="rgba(173,170,250,0.1)" stroke="#adaafa" stroke-width="0.5"><rect width="17.668" height="17.668" rx="2" stroke="none"></rect><rect x="0.25" y="0.25" width="17.168" height="17.168" rx="1.75" fill="none"></rect></g><g id="wordpress-logo-svgrepo-com" transform="translate(1218.896 1380.896)"><g id="Group_2506" data-name="Group 2506" transform="translate(0 0)"><path id="Path_15396" data-name="Path 15396" d="M28.312,21.312a1.81,1.81,0,0,0-.283-.947,1.607,1.607,0,0,1-.337-.805.6.6,0,0,1,.577-.609l.044,0a3.433,3.433,0,0,0-5.187.646c.081,0,.157,0,.221,0,.359,0,.915-.044.915-.044a.142.142,0,0,1,.022.283s-.186.022-.393.033l1.25,3.72.752-2.254-.535-1.466c-.185-.011-.36-.033-.36-.033a.142.142,0,0,1,.022-.283s.567.044.9.044c.359,0,.915-.044.915-.044a.142.142,0,0,1,.022.283s-.186.022-.393.033l1.241,3.691.342-1.144A4.154,4.154,0,0,0,28.312,21.312Z" transform="translate(-20.549 -16.041)" fill="#adaafa"></path><path id="Path_15397" data-name="Path 15397" d="M18.054,37.728a3.434,3.434,0,0,0,1.935,3.09l-1.638-4.488A3.42,3.42,0,0,0,18.054,37.728Z" transform="translate(-16.043 -32.284)" fill="#adaafa"></path><path id="Path_15398" data-name="Path 15398" d="M41.2,51.57l-1.03,2.994a3.433,3.433,0,0,0,2.11-.055.3.3,0,0,1-.025-.047Z" transform="translate(-35.693 -45.825)" fill="#adaafa"></path><path id="Path_15399" data-name="Path 15399" d="M64.37,38.7a3.434,3.434,0,0,0,1.287-4.615,2.607,2.607,0,0,1,.023.353,3.236,3.236,0,0,1-.261,1.23Z" transform="translate(-57.199 -30.29)" fill="#adaafa"></path><path id="Path_15400" data-name="Path 15400" d="M5.445,0A5.445,5.445,0,1,0,10.89,5.445,5.445,5.445,0,0,0,5.445,0Zm0,9.264A3.819,3.819,0,1,1,9.264,5.445,3.823,3.823,0,0,1,5.445,9.264Z" transform="translate(0 0)" fill="#adaafa"></path></g></g></g></svg>