<svg xmlns="http://www.w3.org/2000/svg" width="380.227" height="197.736" viewBox="0 0 380.227 197.736"><g id="woocommerce-store-mapping" transform="translate(-50.5 -26.165)"><g id="woocommerce-logo-color-white" transform="translate(50.5 26.165)"><path id="Path_15403" data-name="Path 15403" d="M33.742,14.44h163.8a18.742,18.742,0,0,1,18.742,18.75V95.682a18.734,18.734,0,0,1-18.742,18.734H138.8l8.04,19.764-35.488-19.764H33.718A18.742,18.742,0,0,1,15,95.682V33.19A18.75,18.75,0,0,1,33.742,14.44Z" transform="translate(74.512 -14.44)" fill="#7d57a4" fill-rule="evenodd"></path><path id="Path_15404" data-name="Path 15404" d="M27.416,34.276a6.781,6.781,0,0,1,5.149-2.543q6.266-.436,7.193,5.909,3.866,25.737,8.278,43.694L66.065,47.053q2.448-4.642,6.187-4.911,5.418-.38,6.773,6.9a153.42,153.42,0,0,0,7.787,28.113q3.248-31.321,10.844-45.287a6.337,6.337,0,0,1,5.434-3.644,7.232,7.232,0,0,1,5.189,1.624,6.337,6.337,0,0,1,2.511,4.753A6.971,6.971,0,0,1,110,38.561q-4.816,8.935-7.921,29.713Q99.01,88.331,99.81,99.651a10,10,0,0,1-.958,5.387,5.173,5.173,0,0,1-4.381,2.971c-2.17.158-4.333-.863-6.511-3.05q-11.47-11.763-18.219-35Q61.819,85.8,57.858,93.654q-7.248,13.942-12.421,14.3-3.359.238-5.719-5.64Q33.381,86.177,26.125,39.876A7.034,7.034,0,0,1,27.416,34.276Z" transform="translate(65.89 -17.3)" fill="#fff"></path><path id="Path_15405" data-name="Path 15405" d="M239.632,49.571a19.091,19.091,0,0,0-13.15-9.506,21.99,21.99,0,0,0-4.468-.475q-11.819,0-19.312,12.3a43.71,43.71,0,0,0-6.393,23.17,31.794,31.794,0,0,0,3.961,16.294,19.051,19.051,0,0,0,13.157,9.506,21.331,21.331,0,0,0,4.46.483q11.938,0,19.3-12.3a44.265,44.265,0,0,0,6.4-23.3Q243.592,56.233,239.632,49.571ZM229.255,72.393q-1.687,8.08-6.258,12.175-3.62,3.256-6.638,2.654t-4.84-5.323a21.245,21.245,0,0,1-1.45-7.486,29.436,29.436,0,0,1,.6-6.036,27.139,27.139,0,0,1,4.341-9.775q4.1-6.028,8.571-5.062,3.018.61,4.832,5.307a21.221,21.221,0,0,1,1.442,7.478A29.38,29.38,0,0,1,229.255,72.393Z" transform="translate(30.488 -19.668)" fill="#fff"></path><path id="Path_15406" data-name="Path 15406" d="M174.552,49.571a19.091,19.091,0,0,0-13.15-9.506,21.99,21.99,0,0,0-4.468-.475q-11.827,0-19.3,12.3a43.647,43.647,0,0,0-6.4,23.17,31.794,31.794,0,0,0,3.961,16.294,19.011,19.011,0,0,0,13.157,9.506,21.331,21.331,0,0,0,4.46.483q11.945,0,19.312-12.3a44.36,44.36,0,0,0,6.456-23.3q0-9.506-3.961-16.168ZM164.175,72.393q-1.687,8.1-6.274,12.191-3.628,3.256-6.638,2.654T146.439,81.9a21.245,21.245,0,0,1-1.45-7.486,29.435,29.435,0,0,1,.6-6.036,27.408,27.408,0,0,1,4.341-9.775q4.087-6.012,8.571-5.046,3.018.61,4.824,5.307a21.237,21.237,0,0,1,1.45,7.478,29.379,29.379,0,0,1-.6,6.036Z" transform="translate(44.016 -19.668)" fill="#fff"></path><path id="Path_15407" data-name="Path 15407" d="M293.214,49.159Q285,57.326,285,69.857q0,13.522,8.143,21.839t21.3,8.286a33.373,33.373,0,0,0,8.579-1.339V85.359a27.2,27.2,0,0,1-7.494,1.26,13.332,13.332,0,0,1-10.456-4.388q-3.921-4.388-3.913-11.922a17.1,17.1,0,0,1,3.889-11.534,12.381,12.381,0,0,1,9.791-4.531,30.252,30.252,0,0,1,8.183,1.188V42.085A35.179,35.179,0,0,0,314.04,41Q301.453,41,293.214,49.159ZM350.312,41q-11.383,0-17.784,7.573t-6.337,21.118q0,14.686,6.337,22.465t18.425,7.787q11.684,0,18-7.787T375.3,70.309q0-14.092-6.416-21.689T350.312,41Zm6.519,42.776a7.319,7.319,0,0,1-6.519,3.485,6.606,6.606,0,0,1-6.02-3.485q-2.067-3.47-2.067-13.886,0-16.215,8.183-16.215,8.714,0,8.714,16.405-.024,10.187-2.289,13.7ZM416,42.584l-2.947,12.579Q411.9,60,410.9,65.065l-1.648,8.714q-2.376-13.047-6.44-31.171h-19.13l-7.185,56h14.33l3.9-38.593,9.783,38.593h10.242l9.331-38.6,4.048,38.514h14.979l-7.6-55.941Zm68.536,0-2.947,12.579q-1.149,4.832-2.147,9.9l-1.648,8.714q-2.376-13.047-6.448-31.171H452.221l-7.208,55.949h14.33l3.889-38.593,9.791,38.593h10.234l9.363-38.546,4.048,38.514h14.979l-7.589-55.941Zm46.506,33.824H544.5V64.764H531.039v-10.3h15.478V42.584H515.909v56H546.62V86.6H531.039Zm58.2-8.832a15.264,15.264,0,0,0-3.85-20.413q-6.186-4.579-16.873-4.579H550.882v56h15.138V73.05h.246L578.5,98.556h15.985L582.393,73.3a14.592,14.592,0,0,0,6.844-5.727Zm-23.218-.9v-13.3q5.379.127,7.708,1.806t2.329,5.545q0,5.783-10.036,5.949Zm34.521-17.514q-8.238,8.167-8.238,20.7,0,13.522,8.159,21.8t21.3,8.286a33.381,33.381,0,0,0,8.611-1.3V85.359a27.2,27.2,0,0,1-7.494,1.26,13.341,13.341,0,0,1-10.464-4.388q-3.921-4.388-3.937-11.922a17.077,17.077,0,0,1,3.9-11.534,12.381,12.381,0,0,1,9.791-4.531,30.292,30.292,0,0,1,8.207,1.188V42.085A35.179,35.179,0,0,0,621.366,41Q608.779,41,600.541,49.159ZM649.654,86.6V76.408H663.12V64.764H649.654v-10.3h15.478V42.584H634.516v56h30.711V86.6Z" transform="translate(-285 97.753)" fill="#fff"></path></g></g></svg>